<?xml version="1.0" encoding="UTF-8" standalone="no"?>
<svg
   id="Group_2579"
   data-name="Group 2579"
   width="439"
   height="395.73499"
   viewBox="0 0 439 395.735"
   version="1.1"
   xmlns="http://www.w3.org/2000/svg"
   xmlns:svg="http://www.w3.org/2000/svg">
  <defs
     id="defs1">
    <clipPath
       id="clip-path">
      <rect
         id="Rectangle_1000"
         data-name="Rectangle 1000"
         width="439"
         height="395.73599"
         fill="#2dc0e8"
         x="0"
         y="0" />
    </clipPath>
  </defs>
  <g
     id="Group_2578"
     data-name="Group 2578"
     clip-path="url(#clip-path)">
    <path
       id="Path_4648"
       data-name="Path 4648"
       d="M 234.574,299.955 H 28.378 c -7.564,0 -13.72,-7.757 -13.72,-17.293 v -180.08 h 330.6 V 201.7 a 7.329,7.329 0 0 0 14.658,0 V 53.859 c 0,-17.616 -12.729,-31.951 -28.375,-31.951 H 287.384 V 10.261 a 10.261,10.261 0 0 0 -20.521,0 V 21.908 H 222.607 V 10.261 a 10.261,10.261 0 0 0 -20.521,0 V 21.908 H 157.834 V 10.261 a 10.261,10.261 0 0 0 -20.521,0 V 21.908 H 93.06 V 10.261 a 10.261,10.261 0 1 0 -20.521,0 V 21.908 H 28.378 C 12.732,21.908 0,36.243 0,53.859 v 228.8 c 0,17.619 12.732,31.951 28.378,31.951 h 206.2 a 7.329,7.329 0 1 0 0,-14.658 M 28.378,36.566 h 44.161 v 10.386 a 10.261,10.261 0 1 0 20.521,0 V 36.566 h 44.252 v 10.386 a 10.261,10.261 0 0 0 20.521,0 V 36.566 h 44.252 v 10.386 a 10.261,10.261 0 0 0 20.521,0 V 36.566 h 44.255 v 10.386 a 10.261,10.261 0 0 0 20.521,0 V 36.566 h 44.161 c 7.564,0 13.717,7.757 13.717,17.293 V 87.924 H 14.658 V 53.859 c 0,-9.536 6.156,-17.293 13.72,-17.293"
       fill="#2dc0e8" />
    <rect
       id="Rectangle_986"
       data-name="Rectangle 986"
       width="31.608"
       height="31.608"
       transform="translate(41.5,127.908)"
       fill="#2dc0e8"
       x="0"
       y="0" />
    <rect
       id="Rectangle_987"
       data-name="Rectangle 987"
       width="31.608"
       height="31.608"
       transform="translate(102.826,127.908)"
       fill="#2dc0e8"
       x="0"
       y="0" />
    <rect
       id="Rectangle_988"
       data-name="Rectangle 988"
       width="31.608"
       height="31.608"
       transform="translate(164.154,127.908)"
       fill="#2dc0e8"
       x="0"
       y="0" />
    <rect
       id="Rectangle_989"
       data-name="Rectangle 989"
       width="31.608"
       height="31.608"
       transform="translate(225.483,127.908)"
       fill="#2dc0e8"
       x="0"
       y="0" />
    <rect
       id="Rectangle_990"
       data-name="Rectangle 990"
       width="31.608"
       height="31.608"
       transform="translate(286.812,127.908)"
       fill="#2dc0e8"
       x="0"
       y="0" />
    <rect
       id="Rectangle_991"
       data-name="Rectangle 991"
       width="31.608"
       height="31.608"
       transform="translate(41.5,185.895)"
       fill="#2dc0e8"
       x="0"
       y="0" />
    <rect
       id="Rectangle_992"
       data-name="Rectangle 992"
       width="31.608"
       height="31.608"
       transform="translate(102.826,185.895)"
       fill="#2dc0e8"
       x="0"
       y="0" />
    <rect
       id="Rectangle_993"
       data-name="Rectangle 993"
       width="31.608"
       height="31.608"
       transform="translate(164.154,185.895)"
       fill="#2dc0e8"
       x="0"
       y="0" />
    <rect
       id="Rectangle_994"
       data-name="Rectangle 994"
       width="31.608"
       height="31.608"
       transform="translate(225.483,185.895)"
       fill="#2dc0e8"
       x="0"
       y="0" />
    <rect
       id="Rectangle_995"
       data-name="Rectangle 995"
       width="31.608"
       height="31.608"
       transform="translate(286.812,185.895)"
       fill="#2dc0e8"
       x="0"
       y="0" />
    <rect
       id="Rectangle_996"
       data-name="Rectangle 996"
       width="31.608"
       height="31.608"
       transform="translate(41.5,243.882)"
       fill="#2dc0e8"
       x="0"
       y="0" />
    <rect
       id="Rectangle_997"
       data-name="Rectangle 997"
       width="31.608"
       height="31.608"
       transform="translate(102.829,243.882)"
       fill="#2dc0e8"
       x="0"
       y="0" />
    <rect
       id="Rectangle_998"
       data-name="Rectangle 998"
       width="31.608"
       height="31.608"
       transform="translate(164.157,243.882)"
       fill="#2dc0e8"
       x="0"
       y="0" />
    <rect
       id="Rectangle_999"
       data-name="Rectangle 999"
       width="31.608"
       height="31.608"
       transform="translate(225.483,243.882)"
       fill="#2dc0e8"
       x="0"
       y="0" />
    <path
       id="Path_4649"
       data-name="Path 4649"
       d="m 344.23019,262.39708 c 2.78903,-13.26236 -8.79721,-18.92681 -15.58676,-21.41156 l 2.58814,-8.27728 a 4.6586518,4.209919 0 0 0 -2.58814,-5.09645 4.4947363,4.0617922 0 0 0 -5.98353,2.67296 l -2.63744,8.43321 -6.11294,-1.55923 2.56842,-8.21491 a 4.6635816,4.2143739 0 0 0 -2.598,-5.09645 4.4947363,4.0617922 0 0 0 -5.98353,2.67296 l -2.63744,8.4332 -13.23772,-3.06277 a 2.8346294,2.5615909 0 0 0 -3.1033,1.84769 l -1.6219,5.06081 a 2.8457215,2.5716145 0 0 0 2.05942,3.19642 l 1.00444,0.22275 c 2.33426,0.519 3.72815,2.68076 3.07496,2.29541 l -11.89805,38.02737 c -0.49298,4.07516 -2.07791,5.20114 -3.90933,5.27019 l -3.51247,0.13365 a 2.8481863,2.573842 0 0 0 -2.61525,1.87108 l -1.41239,4.51174 a 2.8420241,2.5682733 0 0 0 2.05203,3.19308 l 12.656,2.84336 -2.57582,8.24164 a 4.6635816,4.2143739 0 0 0 2.58814,5.09646 4.491039,4.058451 0 0 0 5.98354,-2.67297 l 2.64853,-8.46439 6.11294,1.55923 -2.57952,8.24164 a 4.6623492,4.2132602 0 0 0 2.598,5.09646 4.4922714,4.0595647 0 0 0 5.98354,-2.67297 l 2.64483,-8.46439 0.34385,0.0847 c 15.03586,3.8435 26.14022,-1.21509 29.39264,-11.61737 2.40574,-7.68478 -1.25709,-16.0144 -9.04,-19.4202 7.6954,-0.25839 13.62101,-4.85812 15.33781,-12.99172 m -20.52641,27.07044 c -1.72543,5.53415 -6.84625,7.56449 -13.89585,5.76247 l -14.62545,-3.73547 5.51397,-17.62152 14.31118,3.6564 c 7.0496,1.79868 10.45978,6.31487 8.69615,11.93701 m 3.07126,-28.85577 c -1.66874,5.34593 -5.18491,7.92757 -16.27694,4.83918 l -6.63673,-1.69399 5.13438,-16.40643 6.63673,1.69399 c 9.74743,2.73979 12.78664,6.31822 11.14256,11.56837"
       fill="#2dc0e8"
       style="stroke-width:1.17159" />
  </g>
</svg>
